# xmcd
#
# Track frame offsets:
#	150
#	11410
#	20760
#	33989
#	44826
#	54893
#	64206
#	73410
#	84499
#	93897
#	104653
#	115447
#	128610
#	140542
#	152822
#	165666
#	178568
#	190960
#	204517
#	214804
#	224111
#	234816
#	247353
#	258578
#	272015
#	281294
#	294253
#	304861
#	317437
#	330124
#
# Disc length: 4568 seconds
#
# Revision: 0
# Processed by: cddbd v1.5.2PL0 Copyright (c) Steve Scherf et al.
# Submitted via: EasyCDDAExtractor 15.3.0.1
#
DISCID=c011d61e
DTITLE=Billy Brown - Did We Have A Party
DYEAR=2012
DGENRE=Country
TTITLE0=Flip Out
TTITLE1=I Wanted You
TTITLE2=High Heels But No Soul
TTITLE3=He'll Have To Go
TTITLE4=Run 'em Off
TTITLE5=Meet Me In The Alley Sally
TTITLE6=It's Love
TTITLE7=Did We Have A Party
TTITLE8=Next
TTITLE9=Don't Hold Back
TTITLE10=I'm Sending Back Everything But Memories
TTITLE11=I Never Knew I'd Miss You
TTITLE12=Tight Wad
TTITLE13=Jealous Stars
TTITLE14=Trusting Heart
TTITLE15=Rich In Love
TTITLE16=I Hope I Don't Live Long Enough To Lose You
TTITLE17=Drunk Drunk Again
TTITLE18=Echo Mountain
TTITLE19=Once In A Lifetime
TTITLE20=Be Honest With Me
TTITLE21=Last Letter
TTITLE22=Lost Weekend
TTITLE23=Just Out Of Reach
TTITLE24=Look Out Heart (Here Comes Love)
TTITLE25=It Don't Take Long To Learn
TTITLE26=Let There Be Love
TTITLE27=Open Arms
TTITLE28=One Of The Ten Most Wanted Women
TTITLE29=I'll Be Gone
EXTD=
EXTT0=
EXTT1=
EXTT2=
EXTT3=
EXTT4=
EXTT5=
EXTT6=
EXTT7=
EXTT8=
EXTT9=
EXTT10=
EXTT11=
EXTT12=
EXTT13=
EXTT14=
EXTT15=
EXTT16=
EXTT17=
EXTT18=
EXTT19=
EXTT20=
EXTT21=
EXTT22=
EXTT23=
EXTT24=
EXTT25=
EXTT26=
EXTT27=
EXTT28=
EXTT29=
PLAYORDER=
